<svg width="24" height="16" viewBox="0 0 24 16" fill="none" xmlns="http://www.w3.org/2000/svg">
<path d="M12.9669 3.43743L16.7825 6.92032C16.8874 6.86364 17.0046 6.83359 17.1239 6.83281C17.2711 6.83281 17.415 6.87647 17.5374 6.95825C17.6598 7.04004 17.7552 7.15629 17.8116 7.2923C17.8679 7.42831 17.8826 7.57797 17.8539 7.72235C17.8252 7.86674 17.7543 7.99936 17.6502 8.10346C17.5461 8.20755 17.4135 8.27844 17.2691 8.30716C17.1247 8.33589 16.9751 8.32115 16.839 8.26481C16.703 8.20847 16.5868 8.11307 16.505 7.99067C16.4232 7.86826 16.3796 7.72435 16.3796 7.57714C16.38 7.53291 16.3844 7.48881 16.3925 7.44534L13.6183 4.90772V11.4835H14.3065V6.87494L17.4393 9.28726L20.1336 6.97217L20.6403 7.35676L18.7811 11.3474C18.8691 11.4866 18.9082 11.6512 18.8924 11.8152C18.8766 11.9791 18.8066 12.1332 18.6936 12.253C18.5806 12.3729 18.4309 12.4517 18.2682 12.4771C18.1054 12.5026 17.9388 12.4731 17.7947 12.3934C17.6505 12.3137 17.5369 12.1884 17.4719 12.037C17.4068 11.8857 17.3939 11.717 17.4353 11.5576C17.4766 11.3981 17.5698 11.2569 17.7003 11.1563C17.8307 11.0557 17.9908 11.0013 18.1556 11.0017C18.1772 11.0017 18.1988 11.0071 18.2204 11.0082L19.4087 8.45002L17.4631 10.1256L14.9568 8.19723V10.4389H16.4757V12.1112H15.8275V11.0892H14.9633V12.1317H12.9669V3.43743ZM5.72888 14.8605H18.2874V14.2123H5.72672L5.72888 14.8605ZM6.81458 15.9408H17.2038V15.2926H6.81242L6.81458 15.9408ZM24 6.04851C23.9997 6.34096 23.8834 6.62134 23.6766 6.82813C23.4698 7.03492 23.1895 7.15121 22.897 7.1515C22.8383 7.15013 22.7798 7.14436 22.722 7.13422L19.1116 13.6625H4.90461L1.29425 7.13422C1.23643 7.14441 1.17793 7.15019 1.11924 7.1515C0.861034 7.15377 0.610124 7.06592 0.409741 6.90306C0.209359 6.74021 0.0720537 6.51257 0.0214855 6.25935C-0.0290828 6.00614 0.0102533 5.74322 0.132715 5.51589C0.255177 5.28857 0.453095 5.11107 0.692365 5.014C0.931635 4.91692 1.19727 4.90634 1.4435 4.98409C1.68974 5.06183 1.90114 5.22302 2.04129 5.43989C2.18144 5.65676 2.24156 5.91572 2.21129 6.17215C2.18101 6.42858 2.06225 6.66643 1.87545 6.8447L5.28595 13.0111H11.6792V2.48784C11.3822 2.40914 11.1241 2.22507 10.9529 1.96999C10.7817 1.71491 10.7091 1.40625 10.7488 1.10162C10.7885 0.796988 10.9377 0.517208 11.1685 0.314498C11.3994 0.111788 11.6961 0 12.0033 0C12.3105 0 12.6072 0.111788 12.838 0.314498C13.0688 0.517208 13.218 0.796988 13.2577 1.10162C13.2974 1.40625 13.2249 1.71491 13.0537 1.96999C12.8825 2.22507 12.6243 2.40914 12.3274 2.48784V13.0154H18.7206L22.13 6.84902C21.998 6.72315 21.8994 6.5665 21.8429 6.39312C21.7864 6.21974 21.7738 6.03504 21.8062 5.85558C21.8387 5.67613 21.9151 5.50754 22.0288 5.36492C22.1424 5.22231 22.2897 5.11013 22.4574 5.03845C22.6251 4.96676 22.8079 4.93782 22.9895 4.95421C23.1712 4.97059 23.3459 5.0318 23.498 5.13234C23.6502 5.23288 23.775 5.36961 23.8613 5.53026C23.9476 5.69092 23.9926 5.87047 23.9924 6.05284L24 6.04851ZM1.57404 6.04851C1.57404 5.95899 1.5475 5.87148 1.49776 5.79704C1.44802 5.7226 1.37733 5.66458 1.29462 5.63032C1.21191 5.59607 1.1209 5.5871 1.03309 5.60457C0.945286 5.62203 0.864633 5.66514 0.801329 5.72845C0.738025 5.79175 0.694915 5.8724 0.677449 5.96021C0.659984 6.04801 0.668948 6.13902 0.703207 6.22173C0.737467 6.30444 0.795484 6.37514 0.869922 6.42488C0.944359 6.47461 1.03187 6.50116 1.1214 6.50116C1.24033 6.5006 1.35426 6.45325 1.43856 6.36936C1.52286 6.28546 1.57075 6.17176 1.57188 6.05284L1.57404 6.04851ZM12.0097 1.87639C12.1313 1.87639 12.2502 1.84034 12.3512 1.7728C12.4523 1.70526 12.5311 1.60926 12.5776 1.49694C12.6242 1.38462 12.6363 1.26102 12.6126 1.14178C12.5889 1.02255 12.5304 0.913017 12.4444 0.827051C12.3584 0.741085 12.2489 0.682542 12.1297 0.658824C12.0104 0.635106 11.8868 0.647279 11.7745 0.693803C11.6622 0.740328 11.5662 0.819114 11.4986 0.9202C11.4311 1.02129 11.3951 1.14013 11.3951 1.2617C11.3945 1.34261 11.4099 1.42283 11.4404 1.49776C11.4709 1.5727 11.5159 1.64088 11.5728 1.69839C11.6297 1.7559 11.6974 1.80161 11.772 1.83289C11.8466 1.86418 11.9267 1.88043 12.0076 1.88072L12.0097 1.87639ZM23.3529 6.04851C23.3529 5.95894 23.3263 5.87139 23.2765 5.79693C23.2268 5.72247 23.156 5.66445 23.0732 5.63022C22.9904 5.59599 22.8994 5.58709 22.8115 5.60465C22.7237 5.6222 22.6431 5.66542 22.5798 5.72883C22.5165 5.79224 22.4735 5.873 22.4562 5.96087C22.4388 6.04875 22.4479 6.13979 22.4824 6.22248C22.5168 6.30518 22.575 6.37579 22.6496 6.4254C22.7241 6.47501 22.8118 6.50137 22.9013 6.50116C23.0194 6.49947 23.1321 6.45159 23.2153 6.36779C23.2985 6.28398 23.3456 6.17092 23.3464 6.05284L23.3529 6.04851ZM5.12067 11.7417C5.12067 11.8889 5.16432 12.0328 5.24611 12.1552C5.3279 12.2776 5.44415 12.373 5.58015 12.4294C5.71616 12.4857 5.86582 12.5004 6.01021 12.4717C6.15459 12.443 6.28722 12.3721 6.39132 12.268C6.49541 12.1639 6.5663 12.0313 6.59502 11.8869C6.62374 11.7425 6.609 11.5929 6.55267 11.4569C6.49633 11.3208 6.40093 11.2046 6.27852 11.1228C6.15612 11.041 6.01221 10.9974 5.865 10.9974C5.84231 10.9974 5.82178 11.0028 5.7991 11.0039L4.61077 8.4457L6.56179 10.1212L9.06917 8.19291V10.4345H7.53514V12.1068H8.18332V11.0849H9.04756V12.1317H11.0364V3.43743L7.23266 6.92032C7.12591 6.86499 7.00718 6.83679 6.88696 6.83821C6.73975 6.83821 6.59584 6.88187 6.47343 6.96366C6.35103 7.04544 6.25563 7.16169 6.19929 7.2977C6.14296 7.43371 6.12822 7.58337 6.15694 7.72775C6.18566 7.87214 6.25655 8.00476 6.36064 8.10886C6.46474 8.21296 6.59736 8.28385 6.74175 8.31257C6.88613 8.34129 7.03579 8.32655 7.1718 8.27021C7.30781 8.21387 7.42406 8.11847 7.50585 7.99607C7.58763 7.87366 7.63129 7.72975 7.63129 7.58254C7.63083 7.53831 7.62649 7.49421 7.61832 7.45074L10.3925 4.91312V11.4835H9.70546V6.87494L6.57259 9.28726L3.87941 6.97217L3.37166 7.35676L5.23086 11.3474C5.1546 11.4664 5.1141 11.6047 5.11419 11.746L5.12067 11.7417Z" fill="#0C72BA"/>
</svg>
