<svg width="45" height="30" viewBox="0 0 45 30" fill="none" xmlns="http://www.w3.org/2000/svg">
<path d="M24.7254 6.89838L31.7367 13.2983C31.9294 13.1941 32.1448 13.1389 32.3639 13.1375C32.6344 13.1375 32.8989 13.2177 33.1238 13.368C33.3487 13.5183 33.524 13.7319 33.6275 13.9818C33.7311 14.2317 33.7581 14.5067 33.7054 14.772C33.6526 15.0373 33.5223 15.281 33.3311 15.4723C33.1398 15.6636 32.8961 15.7938 32.6308 15.8466C32.3655 15.8994 32.0905 15.8723 31.8405 15.7688C31.5906 15.6653 31.377 15.49 31.2267 15.265C31.0764 15.0401 30.9962 14.7757 30.9962 14.5052C30.9971 14.4239 31.005 14.3429 31.02 14.263L25.9224 9.60006V21.6832H27.1869V13.2149L32.9436 17.6476L37.8944 13.3935L38.8254 14.1002L35.409 21.4331C35.5707 21.689 35.6427 21.9914 35.6136 22.2927C35.5845 22.594 35.456 22.877 35.2484 23.0972C35.0407 23.3174 34.7657 23.4623 34.4666 23.509C34.1676 23.5557 33.8614 23.5016 33.5965 23.3552C33.3316 23.2088 33.1229 22.9784 33.0034 22.7003C32.8838 22.4222 32.8601 22.1123 32.9361 21.8193C33.0121 21.5263 33.1834 21.2669 33.423 21.082C33.6626 20.897 33.957 20.7971 34.2597 20.7979C34.2994 20.7979 34.3391 20.8078 34.3788 20.8098L36.5624 16.1091L32.9872 19.188L28.3819 15.6446V19.7636H31.1729V22.8365H29.9818V20.9587H28.3938V22.8743H24.7254V6.89838ZM11.4254 27.8886H34.5019V26.6975H11.4214L11.4254 27.8886ZM13.4204 29.8736H32.5108V28.6826H13.4164L13.4204 29.8736ZM44.9989 11.6963C44.9984 12.2337 44.7847 12.7489 44.4047 13.1289C44.0247 13.5088 43.5095 13.7225 42.9722 13.7231C42.8643 13.7206 42.7568 13.7099 42.6506 13.6913L36.0165 25.6871H9.91076L3.27664 13.6913C3.17041 13.71 3.0629 13.7206 2.95506 13.7231C2.48061 13.7272 2.01955 13.5658 1.65135 13.2666C1.28314 12.9673 1.03084 12.549 0.937917 12.0837C0.844997 11.6184 0.917278 11.1353 1.1423 10.7176C1.36733 10.2999 1.73101 9.97374 2.17067 9.79536C2.61034 9.61698 3.09845 9.59754 3.55091 9.74039C4.00336 9.88325 4.39183 10.1794 4.64935 10.5779C4.90688 10.9764 5.01735 11.4523 4.96172 11.9235C4.9061 12.3947 4.68786 12.8317 4.34461 13.1593L10.6115 24.4901H22.3592V5.1535C21.8135 5.00888 21.3391 4.67065 21.0246 4.20193C20.71 3.73321 20.5767 3.16604 20.6496 2.60628C20.7226 2.04651 20.9967 1.53241 21.4208 1.15993C21.845 0.787444 22.3902 0.582031 22.9547 0.582031C23.5192 0.582031 24.0644 0.787444 24.4885 1.15993C24.9127 1.53241 25.1868 2.04651 25.2597 2.60628C25.3327 3.16604 25.1994 3.73321 24.8848 4.20193C24.5702 4.67065 24.0959 5.00888 23.5502 5.1535V24.498H35.2979L41.5628 13.1672C41.3203 12.936 41.139 12.6481 41.0352 12.3295C40.9313 12.0109 40.9082 11.6715 40.9678 11.3418C41.0274 11.012 41.168 10.7023 41.3768 10.4402C41.5856 10.1781 41.8562 9.972 42.1644 9.84028C42.4725 9.70856 42.8085 9.65538 43.1422 9.68549C43.4759 9.7156 43.797 9.82807 44.0766 10.0128C44.3561 10.1976 44.5855 10.4488 44.744 10.744C44.9026 11.0392 44.9854 11.3692 44.985 11.7042L44.9989 11.6963ZM3.79078 11.6963C3.79078 11.5318 3.742 11.371 3.6506 11.2342C3.55921 11.0974 3.42931 10.9908 3.27733 10.9279C3.12534 10.8649 2.95811 10.8484 2.79676 10.8805C2.63542 10.9126 2.48722 10.9918 2.3709 11.1082C2.25457 11.2245 2.17536 11.3727 2.14327 11.534C2.11117 11.6954 2.12764 11.8626 2.1906 12.0146C2.25355 12.1666 2.36016 12.2965 2.49694 12.3879C2.63372 12.4793 2.79453 12.5281 2.95903 12.5281C3.17756 12.527 3.38691 12.44 3.54181 12.2859C3.69672 12.1317 3.78472 11.9228 3.78681 11.7042L3.79078 11.6963ZM22.9666 4.02995C23.19 4.02995 23.4084 3.9637 23.5941 3.83959C23.7799 3.71548 23.9246 3.53907 24.0101 3.33268C24.0956 3.12629 24.118 2.89919 24.0744 2.68008C24.0308 2.46098 23.9232 2.25972 23.7653 2.10176C23.6073 1.94379 23.4061 1.83622 23.187 1.79263C22.9678 1.74905 22.7407 1.77142 22.5344 1.85691C22.328 1.9424 22.1516 2.08717 22.0274 2.27292C21.9033 2.45866 21.8371 2.67704 21.8371 2.90044C21.836 3.0491 21.8644 3.19651 21.9204 3.3342C21.9764 3.4719 22.0591 3.59718 22.1637 3.70285C22.2683 3.80853 22.3927 3.89252 22.5298 3.95001C22.6669 4.0075 22.814 4.03737 22.9626 4.03789L22.9666 4.02995ZM43.8099 11.6963C43.8099 11.5317 43.761 11.3708 43.6696 11.234C43.5781 11.0972 43.4481 10.9906 43.296 10.9277C43.1439 10.8648 42.9765 10.8484 42.8151 10.8807C42.6537 10.9129 42.5055 10.9924 42.3893 11.1089C42.273 11.2254 42.194 11.3738 42.1621 11.5353C42.1303 11.6967 42.147 11.864 42.2103 12.016C42.2735 12.1679 42.3804 12.2977 42.5175 12.3888C42.6545 12.48 42.8155 12.5284 42.9801 12.5281C43.1971 12.5249 43.4042 12.437 43.5571 12.283C43.71 12.129 43.7964 11.9212 43.798 11.7042L43.8099 11.6963ZM10.3078 22.1576C10.3078 22.4282 10.388 22.6926 10.5383 22.9175C10.6886 23.1424 10.9022 23.3177 11.1521 23.4212C11.402 23.5248 11.677 23.5519 11.9423 23.4991C12.2076 23.4463 12.4513 23.316 12.6426 23.1248C12.8339 22.9335 12.9642 22.6898 13.0169 22.4245C13.0697 22.1592 13.0426 21.8842 12.9391 21.6342C12.8356 21.3843 12.6603 21.1707 12.4354 21.0204C12.2104 20.8701 11.946 20.7899 11.6755 20.7899C11.6338 20.7899 11.5961 20.7999 11.5544 20.8018L9.37082 16.1012L12.9559 19.18L17.5632 15.6367V19.7557H14.7444V22.8286H15.9355V20.9507H17.5235V22.8743H21.178V6.89838L14.1886 13.2983C13.9924 13.1966 13.7743 13.1448 13.5534 13.1474C13.2829 13.1474 13.0184 13.2276 12.7935 13.3779C12.5686 13.5282 12.3933 13.7418 12.2898 13.9917C12.1862 14.2416 12.1592 14.5166 12.2119 14.7819C12.2647 15.0472 12.395 15.291 12.5863 15.4822C12.7775 15.6735 13.0212 15.8038 13.2865 15.8565C13.5519 15.9093 13.8269 15.8822 14.0768 15.7787C14.3267 15.6752 14.5403 15.4999 14.6906 15.275C14.8409 15.0501 14.9211 14.7856 14.9211 14.5151C14.9202 14.4338 14.9123 14.3528 14.8973 14.2729L19.9949 9.60999V21.6832H18.7324V13.2149L12.9757 17.6476L8.02693 13.3935L7.09394 14.1002L10.5103 21.4331C10.3701 21.6517 10.2957 21.9059 10.2959 22.1656L10.3078 22.1576Z" fill="#0A71B9"/>
</svg>
